<?xml version="1.0" standalone="no"?>
<!DOCTYPE svg PUBLIC "-//W3C//DTD SVG 20010904//EN"
 "http://www.w3.org/TR/2001/REC-SVG-20010904/DTD/svg10.dtd">
<svg version="1.0" xmlns="http://www.w3.org/2000/svg"
 width="1024.000000pt" height="1024.000000pt" viewBox="0 0 1024.000000 1024.000000"
 preserveAspectRatio="xMidYMid meet">

<g transform="translate(0.000000,1024.000000) scale(0.100000,-0.100000)"
fill="#000000" stroke="none">
<path d="M8313 8999 c7 -24 60 -285 79 -386 l9 -53 55 0 c57 0 69 16 13 18
-39 1 -47 9 -26 25 15 10 16 16 5 39 -7 16 -16 28 -20 28 -4 0 -5 7 -1 17 5
13 2 15 -14 11 -22 -6 -26 4 -38 112 -4 32 -3 41 4 30 9 -13 11 -13 11 3 0 9
8 17 18 17 14 0 14 2 3 9 -8 5 -20 7 -28 4 -8 -3 -13 2 -13 13 0 14 2 16 9 6
6 -10 10 -9 14 7 7 30 -3 67 -14 49 -7 -10 -9 -9 -9 4 0 9 8 19 18 21 11 3 8
5 -9 6 -14 0 -36 11 -49 23 l-23 22 6 -25z"/>
<path d="M8400 8890 c0 -5 5 -10 11 -10 5 0 7 5 4 10 -3 6 -8 10 -11 10 -2 0
-4 -4 -4 -10z"/>
<path d="M80 8580 c-47 -3 59 -7 235 -7 176 0 354 3 395 7 94 9 -511 9 -630 0z"/>
<path d="M4600 8534 c-6 -15 -10 -197 -10 -447 0 -473 0 -475 70 -509 47 -24
135 -23 179 0 68 37 71 52 71 376 l0 288 -47 61 c-52 64 -236 257 -247 257 -4
0 -11 -12 -16 -26z"/>
<path d="M6430 7889 l0 -650 -102 3 -101 3 -54 70 c-29 39 -129 175 -221 304
l-167 234 -3 -306 -2 -307 -175 0 -174 0 -3 578 -3 577 -30 30 c-16 17 -41 44
-55 60 l-25 30 -7 -55 c-3 -30 -6 -233 -7 -450 -1 -429 -5 -464 -58 -562 -55
-101 -183 -192 -315 -223 -145 -34 -356 -12 -479 51 -65 32 -144 112 -182 182
-47 88 -57 159 -57 445 l0 258 -27 37 c-15 20 -47 59 -72 86 -32 35 -42 42
-37 25 4 -13 10 -61 13 -107 12 -186 -51 -324 -187 -408 -33 -20 -60 -38 -60
-40 0 -4 239 -370 291 -446 22 -31 39 -59 39 -62 0 -4 -98 -5 -217 -4 l-218 3
-83 145 c-164 288 -179 310 -212 310 l-30 0 0 -230 0 -230 -180 0 -180 0 0
544 0 544 -42 31 c-30 22 -44 28 -47 19 -2 -7 -17 -28 -32 -46 -16 -18 -29
-38 -29 -45 0 -7 -42 -55 -94 -106 l-94 -94 -40 32 c-92 72 -220 108 -325 91
-129 -21 -226 -90 -279 -198 -30 -62 -33 -74 -32 -162 0 -117 27 -185 100
-254 85 -82 191 -113 320 -95 85 12 135 34 206 92 l56 46 124 -108 c68 -59
129 -115 137 -125 12 -15 5 -25 -66 -94 -211 -205 -506 -270 -788 -173 -91 31
-226 107 -290 164 -24 20 -46 37 -49 37 -14 0 31 -58 64 -82 21 -14 63 -58 94
-96 111 -140 169 -173 318 -180 l108 -5 0 -103 0 -104 -121 0 -121 0 4 -385 3
-385 -112 0 c-149 0 -153 -2 -100 -54 23 -23 68 -63 100 -89 57 -46 59 -47
130 -47 249 0 449 -161 488 -394 35 -206 -35 -410 -173 -512 -117 -86 -232
-107 -530 -96 -94 3 -159 1 -157 -4 6 -14 305 -304 314 -304 4 0 3 6 -3 13 -8
10 33 11 206 9 119 -2 218 -5 219 -6 2 -2 6 -105 9 -230 l6 -228 -381 4 c-209
1 -381 1 -381 -2 1 -3 26 -23 57 -45 32 -22 96 -77 144 -122 48 -45 99 -85
114 -89 20 -5 23 -9 13 -16 -10 -7 -9 -11 5 -22 10 -8 21 -32 24 -54 5 -34 9
-39 32 -39 44 0 114 -18 118 -30 3 -7 -18 -14 -57 -18 -33 -4 -60 -11 -60 -16
0 -5 5 -9 11 -9 7 0 37 -21 67 -46 42 -34 61 -44 79 -39 16 4 23 1 23 -9 0
-19 27 -24 89 -18 34 3 51 1 51 -7 0 -7 -24 -11 -66 -11 -36 0 -75 -5 -86 -11
-15 -8 -19 -8 -14 0 4 6 2 11 -3 11 -6 0 -11 -7 -11 -15 0 -13 22 -15 143 -14
l142 0 -50 16 c-41 12 -46 16 -31 25 10 5 34 8 54 5 20 -3 29 -3 20 -1 -10 3
-18 9 -18 14 0 5 -19 11 -42 13 l-43 4 48 1 47 2 0 113 c0 61 3 123 6 137 4
20 3 22 -5 10 -7 -10 -11 -11 -11 -3 0 10 -51 13 -202 16 l-203 2 228 3 c154
1 227 -1 227 -9 0 -5 -4 -8 -10 -4 -13 8 0 -98 14 -107 7 -5 4 -8 -6 -8 -14 0
-18 10 -20 48 -1 26 -5 -9 -8 -78 -5 -130 1 -182 11 -95 3 28 7 41 8 30 1 -16
3 -17 11 -5 6 10 10 -9 12 -60 l3 -75 158 -3 157 -3 0 -202 c0 -111 3 -212 6
-224 l6 -23 -231 0 -231 0 -2 -602 -3 -603 -238 -3 -238 -2 26 -33 c31 -37 74
-70 166 -127 59 -36 71 -40 135 -40 38 -1 101 -5 139 -11 39 -6 111 -14 160
-18 l90 -8 -91 -1 -91 -2 11 -47 c14 -63 25 -80 38 -62 5 9 6 4 2 -14 -4 -20
-2 -27 8 -27 21 0 95 -77 126 -132 28 -49 53 -63 96 -52 21 5 24 3 19 -15 -8
-31 35 -44 86 -26 22 7 60 17 84 20 43 7 46 6 61 -24 9 -17 17 -34 19 -38 4
-15 102 -2 115 15 7 9 12 11 12 4 0 -7 7 -12 15 -12 11 0 15 11 15 40 l0 40
74 0 c71 0 74 -1 80 -25 4 -14 11 -23 16 -20 13 8 13 45 0 45 -11 0 -14 118
-4 144 5 12 21 16 70 16 l64 0 1 -42 c0 -24 4 -61 8 -83 l9 -40 2 55 c1 30 3
105 4 165 0 61 6 113 11 117 6 4 30 8 55 9 l45 2 -45 7 -45 7 40 1 c72 1 76
-4 78 -93 l2 -80 59 -3 c61 -3 79 -13 90 -50 4 -12 12 -20 17 -17 5 3 17 -12
26 -35 10 -22 22 -40 27 -40 5 0 18 -7 28 -16 14 -14 20 -15 33 -4 13 11 21
11 43 0 l27 -13 -25 -6 -25 -6 33 -32 c17 -17 33 -26 33 -20 1 7 4 -1 8 -18 8
-41 24 -38 31 5 9 50 17 59 48 54 44 -7 52 -12 46 -29 -4 -11 0 -15 15 -15 28
0 49 -20 44 -41 -5 -17 34 -52 47 -44 4 3 31 5 60 6 58 2 64 10 75 89 l5 45
63 0 c74 0 87 -7 87 -46 0 -19 5 -29 15 -29 8 0 15 5 15 11 0 6 11 20 25 31
35 28 31 38 -15 38 -39 0 -40 1 -40 34 0 18 3 54 6 80 l7 46 62 0 c62 0 63 0
69 -31 3 -17 6 -48 7 -68 0 -29 2 -32 9 -16 5 11 10 34 11 50 2 24 3 22 9 -15
6 -40 7 -41 8 -11 2 22 10 39 27 53 35 27 31 38 -14 38 l-40 0 -3 85 c-3 78
-1 85 17 88 17 4 16 5 -5 7 -14 2 4 6 40 10 40 4 -46 8 -220 11 l-285 4 415 5
415 5 -3 35 c-6 58 -52 190 -92 268 -21 39 -35 72 -31 72 7 0 180 -175 241
-245 19 -22 59 -62 89 -88 29 -26 45 -44 35 -41 -11 4 -5 -7 16 -25 19 -18 46
-42 59 -54 13 -12 39 -45 57 -73 18 -28 56 -70 84 -94 28 -23 57 -57 64 -74 9
-21 29 -39 62 -56 27 -14 57 -35 67 -47 10 -13 25 -23 34 -23 10 0 13 -6 9
-16 -3 -8 -2 -12 4 -9 16 10 50 -5 50 -21 0 -8 7 -14 15 -14 8 0 15 5 15 10 0
11 43 14 53 4 4 -4 41 -7 82 -8 73 -1 77 0 89 26 8 14 12 39 10 55 -2 15 -1
20 2 11 7 -22 30 -23 38 -3 6 17 80 17 82 0 0 -6 4 -30 8 -55 l8 -46 64 2 c69
1 94 14 94 48 0 40 27 66 71 66 21 0 39 -5 39 -10 0 -6 5 -9 12 -8 11 3 22
-21 32 -73 5 -25 8 -25 61 -21 46 4 55 2 55 -12 0 -25 25 -19 38 9 7 14 12 31
12 36 0 6 7 26 16 45 14 30 21 34 55 34 56 0 53 -28 -3 -33 l-43 -4 43 -1 c29
-1 42 -6 42 -16 0 -8 9 -31 21 -50 20 -34 24 -36 74 -36 33 0 55 -5 58 -12 3
-7 6 -3 6 9 1 24 55 83 77 83 10 0 14 12 14 40 0 27 4 40 14 40 10 0 13 18 14
69 0 72 16 141 33 141 5 0 9 7 9 15 0 8 -5 15 -11 15 -7 0 -10 17 -7 45 2 31
-1 45 -9 45 -7 0 -13 6 -13 14 0 8 -8 17 -17 20 -10 3 59 4 152 3 l170 -2 6
93 c3 51 10 97 16 103 6 6 32 -15 77 -65 89 -100 147 -129 254 -128 76 1 120
6 130 17 3 2 11 0 19 -7 7 -6 17 -7 21 -3 4 4 1 10 -6 12 -7 3 5 16 30 32 24
15 49 35 57 44 12 15 18 12 68 -33 30 -28 59 -50 63 -50 5 0 7 -7 4 -15 -4 -8
-2 -15 4 -15 6 0 12 4 14 10 2 6 20 5 48 -4 25 -7 52 -12 60 -10 8 2 2 -3 -15
-11 -26 -12 -27 -14 -9 -15 28 0 34 -18 33 -93 0 -57 -16 -130 -18 -84 -1 9
-8 17 -16 17 -11 0 -15 -12 -15 -44 0 -26 6 -48 15 -56 8 -7 15 -23 15 -36 0
-15 6 -24 15 -24 12 0 15 16 15 80 0 47 4 80 10 80 6 0 10 -7 10 -15 0 -8 5
-15 10 -15 6 0 10 7 10 15 0 23 30 18 52 -10 25 -32 36 -32 41 3 2 15 5 -10 6
-55 l1 -83 -50 0 c-43 0 -50 -3 -50 -20 0 -13 12 -25 36 -35 19 -8 33 -19 29
-25 -3 -5 1 -10 9 -10 9 0 16 -9 16 -21 0 -12 4 -17 11 -13 6 3 9 15 6 25 -3
11 -1 19 4 19 5 0 9 18 9 40 0 29 4 40 15 40 8 0 15 -4 15 -10 0 -5 23 -10 50
-10 50 0 50 0 50 -32 0 -18 3 -50 6 -71 6 -34 5 -37 -17 -37 -18 0 -20 -3 -11
-12 9 -9 15 -9 24 0 15 15 124 16 133 2 5 -8 11 -8 20 0 11 9 12 6 8 -12 -4
-18 -2 -20 6 -8 17 25 24 3 13 -42 -10 -38 -9 -41 4 -24 8 12 14 15 14 7 0
-11 3 -11 15 -1 8 7 15 11 15 9 0 -2 -7 -39 -15 -81 -8 -43 -11 -86 -7 -97 7
-19 8 -19 19 5 6 13 7 22 2 18 -5 -3 -9 4 -9 15 0 12 5 21 10 21 6 0 10 9 10
20 0 16 7 20 31 20 28 0 30 2 18 16 -7 9 -22 14 -36 11 -18 -3 -23 0 -21 12 4
22 46 27 54 7 9 -23 34 -20 34 4 0 11 5 20 10 20 6 0 10 6 10 13 0 8 11 24 26
37 20 20 27 22 33 11 7 -10 10 -9 16 8 5 15 10 19 18 12 21 -17 47 12 47 53 0
31 3 36 24 36 17 0 26 7 30 25 4 14 11 25 16 25 6 0 10 7 10 15 0 8 8 15 19
15 12 0 20 9 24 29 3 16 13 36 22 44 8 9 15 33 15 56 0 33 3 41 19 41 25 0 45
25 38 50 -3 13 0 20 9 20 18 0 18 24 -1 40 -8 7 -15 27 -15 44 -1 34 -30 76
-53 76 -28 0 -53 102 -31 121 11 9 11 15 3 25 -7 9 -8 14 -1 14 7 0 7 12 0 38
-5 20 -9 45 -9 54 0 9 -13 21 -30 27 -16 5 -29 14 -29 18 -7 125 -6 133 21
142 22 7 26 15 27 52 3 58 -7 99 -23 99 -25 0 -36 29 -38 96 -2 52 2 69 14 77
12 8 15 21 11 61 -3 28 -10 55 -16 59 -7 5 -3 7 10 4 17 -4 20 -1 17 14 -3 11
-11 19 -19 19 -22 0 -37 42 -38 108 -1 49 3 65 15 72 13 8 15 18 9 52 -5 23
-6 47 -3 54 2 6 -1 15 -7 19 -8 5 -8 10 0 20 8 10 5 14 -13 19 -22 5 -24 13
-37 133 -8 71 -13 133 -12 139 1 6 -8 16 -20 21 -22 11 -22 11 12 27 19 8 29
15 23 16 -9 0 -13 23 -13 80 0 73 -2 80 -20 80 -17 0 -20 7 -20 42 0 49 18
105 43 132 15 18 23 57 17 95 -1 8 4 18 12 22 10 7 10 9 -2 9 -13 0 -13 1 0
10 10 6 11 10 3 10 -8 0 -13 15 -13 39 0 33 4 40 23 44 22 4 22 4 0 6 -20 1
-21 5 -21 126 0 100 -4 128 -16 141 -10 10 -17 36 -18 72 -1 31 -2 68 -2 82
-1 21 -7 26 -33 28 -18 2 -34 10 -38 20 -4 9 -10 66 -15 126 -5 64 -13 111
-20 116 -6 4 -11 13 -10 21 3 20 -11 59 -21 59 -4 0 -11 20 -14 44 -5 34 -12
46 -28 50 -19 5 -20 8 -7 16 12 8 9 10 -13 10 -15 0 -41 7 -57 15 -29 15 -30
18 -30 84 0 68 0 69 29 74 32 7 33 18 13 85 -6 17 -8 32 -4 32 4 0 0 5 -8 10
-13 9 -13 11 0 20 12 8 11 10 -7 10 -22 0 -23 4 -23 84 0 75 2 84 20 89 17 4
20 14 20 60 0 30 3 69 6 86 6 26 11 31 38 32 l31 1 -35 7 c-20 4 -41 10 -47
14 -6 4 -14 3 -18 -3 -11 -17 -21 -3 -22 32 -2 25 0 28 6 14 7 -19 8 -18 14 5
11 41 8 107 -5 112 -35 14 24 4 80 -13 85 -27 110 -26 114 3 2 14 11 23 27 25
13 2 26 12 28 23 3 10 11 19 18 19 7 0 16 11 19 25 4 14 13 25 20 25 15 0 28
58 14 66 -4 3 -8 14 -8 26 0 17 3 18 15 8 20 -16 45 -6 45 19 0 11 10 30 22
41 15 13 19 23 12 28 -6 4 -13 15 -17 25 -3 9 -13 17 -21 17 -16 0 -20 68 -5
108 10 26 45 62 61 62 5 0 8 32 7 70 -1 39 -5 70 -9 70 -4 0 -17 8 -28 19 -17
14 -22 30 -22 70 0 52 10 71 43 84 13 5 17 18 17 65 0 32 5 63 12 70 9 9 5 14
-19 22 -33 12 -43 32 -43 88 0 24 5 32 18 33 10 0 12 3 5 6 -20 7 -16 19 10
30 21 10 24 18 24 70 1 32 4 66 8 76 5 12 0 23 -16 37 -22 17 -22 19 -5 20 17
0 18 6 13 60 -6 54 -5 61 16 75 14 10 18 18 11 23 -6 4 -13 31 -16 60 -5 48
-3 55 16 62 18 8 19 9 3 9 -11 1 -32 15 -48 32 -26 28 -29 38 -29 95 0 58 2
64 21 64 19 0 21 4 14 37 -4 21 -12 41 -18 45 -8 5 -7 8 3 8 11 1 10 4 -5 16
-15 11 -17 17 -7 23 8 5 1 12 -22 21 -33 12 -34 15 -40 81 -7 72 -4 89 19 89
16 0 3 69 -15 80 -8 5 -7 9 5 14 9 3 13 10 10 16 -9 15 -25 12 -25 -5 0 -8 -6
-15 -12 -15 -9 0 -9 -3 1 -9 8 -5 11 -16 8 -26 -4 -9 -11 -13 -17 -10 -18 11
-43 79 -41 112 1 17 -3 41 -9 53 -14 26 -69 83 -95 98 -11 6 -14 12 -7 12 19
0 -15 48 -40 56 -11 3 -17 12 -14 20 3 8 -1 14 -10 14 -8 0 -18 -8 -21 -17 -9
-23 -29 -43 -42 -43 -6 0 -16 10 -22 22 -8 14 -14 18 -17 10 -2 -6 -8 -12 -13
-12 -5 0 -9 43 -9 95 0 156 -10 185 -95 271 -40 41 -77 74 -83 74 -15 0 -20
-196 -18 -748 l1 -502 -182 0 -183 0 0 270 0 270 -150 0 -150 0 0 -270 0 -270
-177 2 -178 3 -3 28 c-2 16 -6 27 -10 25 -157 -82 -236 -102 -392 -102 -107 1
-136 5 -206 27 -197 65 -355 222 -421 421 -25 74 -27 94 -28 236 0 173 10 220
73 345 l35 70 -29 50 c-39 71 -121 182 -139 189 -13 5 -15 -72 -15 -645z m415
-671 c111 -115 139 -147 133 -153 -6 -6 -177 165 -204 203 -31 44 3 20 71 -50z
m1500 -213 c33 -9 84 -29 112 -45 58 -33 68 -36 57 -17 -4 7 -3 9 2 4 5 -5 9
-14 9 -20 0 -6 11 -17 25 -24 30 -15 38 -35 39 -93 l1 -45 -98 -33 c-53 -18
-105 -35 -114 -38 -15 -5 -18 -1 -18 23 0 63 -88 112 -163 92 -30 -8 -42 -18
-53 -46 -29 -69 4 -106 149 -162 106 -40 158 -72 205 -126 69 -79 90 -190 57
-302 -20 -68 -89 -144 -163 -180 -53 -26 -65 -28 -182 -28 -117 0 -129 2 -182
28 -76 37 -129 99 -156 182 -12 36 -22 71 -22 78 0 8 40 26 98 44 l97 31 13
-42 c18 -63 69 -108 130 -114 84 -8 142 34 142 104 0 38 -39 67 -152 113 -185
77 -254 141 -279 259 -51 249 172 428 446 357z m-5635 -225 l0 -200 165 0 165
0 0 200 0 200 125 0 125 0 0 -495 0 -495 -125 0 -125 0 -2 188 -3 187 -75 3
c-41 2 -112 0 -157 -3 l-83 -7 0 -184 0 -184 -130 0 -130 0 0 495 0 495 125 0
125 0 0 -200z m1459 -15 c48 -115 138 -326 200 -469 62 -142 117 -269 122
-282 l9 -25 -137 3 -137 3 -39 98 -39 97 -202 0 -201 0 -34 -88 c-19 -48 -38
-93 -44 -99 -7 -9 -46 -13 -133 -13 -68 0 -124 2 -124 4 0 2 9 24 19 48 39 88
294 678 349 806 l57 133 123 -3 123 -3 88 -210z m1021 110 l0 -105 -135 0
-135 0 0 -390 0 -391 -122 3 -123 3 3 95 c2 52 0 226 -4 387 l-6 292 -132 3
-131 3 -3 103 -3 102 396 0 395 0 0 -105z m852 -92 l3 -198 163 -3 162 -2 0
200 0 200 130 0 130 0 0 -495 0 -495 -130 0 -130 0 -2 188 -3 187 -162 3 -163
2 0 -190 0 -190 -125 0 -125 0 0 495 0 495 125 0 125 0 2 -197z m976 -295 l-3
-493 -127 -3 -128 -3 0 496 0 495 130 0 130 0 -2 -492z m840 390 l-3 -103
-127 -3 -128 -3 0 -389 0 -390 -130 0 -130 0 -2 392 -3 392 -125 1 -125 0 -3
103 -3 102 391 0 391 0 -3 -102z m696 77 c3 -8 1 -15 -4 -15 -6 0 -10 7 -10
15 0 8 2 15 4 15 2 0 6 -7 10 -15z m126 -1089 c0 -2 -8 -10 -17 -17 -16 -13
-17 -12 -4 4 13 16 21 21 21 13z m-5710 -556 l0 -500 -119 0 -120 0 -3 493
c-2 270 -2 495 0 500 2 4 57 7 123 7 l119 0 0 -500z m770 390 l0 -110 -211 0
-212 0 7 -37 c3 -21 6 -64 6 -95 l0 -58 98 0 c53 0 121 -3 150 -6 l52 -7 0
-98 0 -99 -154 0 -155 0 1 -187 0 -188 -116 -3 -116 -3 0 494 c0 272 3 497 7
500 3 4 150 7 325 7 l318 0 0 -110z m728 -2 l3 -108 -201 0 -200 0 0 -100 0
-100 145 0 145 0 0 -100 0 -100 -68 0 c-38 0 -104 -3 -146 -7 l-77 -6 3 -184
3 -184 -120 3 -120 3 -3 498 -2 497 317 -2 318 -3 3 -107z m732 2 l0 -110
-200 0 -200 0 0 -95 0 -95 155 0 155 0 0 -100 0 -100 -155 0 -155 0 0 -90 0
-90 195 0 195 0 0 -105 0 -105 -315 0 -315 0 0 500 0 500 320 0 320 0 0 -110z
m655 87 c113 -37 185 -137 193 -268 8 -139 -41 -242 -142 -300 l-55 -30 38
-62 c21 -34 73 -115 115 -181 42 -65 76 -123 76 -127 0 -5 -63 -9 -139 -9
-116 0 -140 3 -145 15 -3 9 -52 90 -108 180 -84 137 -105 165 -125 165 l-23 0
0 -180 0 -180 -120 0 -120 0 0 501 0 501 253 -4 c198 -4 263 -8 302 -21z m993
-89 l3 -108 -211 0 -210 0 0 -95 0 -95 155 0 155 0 0 -100 0 -100 -155 0 -155
0 0 -90 0 -90 205 0 205 0 0 -105 0 -105 -330 0 -330 0 0 500 0 500 333 -2
332 -3 3 -107z m237 104 c6 -4 40 -43 75 -87 107 -134 149 -185 244 -299 l91
-109 3 251 2 252 125 0 125 0 0 -505 0 -505 -59 0 -59 0 -104 113 c-57 61
-157 175 -223 251 l-120 140 -3 -247 -2 -247 -120 0 -120 0 -2 496 c-2 273 -1
498 1 500 7 7 136 4 146 -4z m1475 -102 l0 -110 -130 0 -130 0 0 -390 0 -390
-120 0 -120 0 0 390 0 390 -125 0 -125 0 0 110 0 110 375 0 375 0 0 -110z m50
100 c0 -5 -4 -10 -10 -10 -5 0 -10 5 -10 10 0 6 5 10 10 10 6 0 10 -4 10 -10z
m34 -46 c3 -8 2 -12 -4 -9 -6 3 -10 10 -10 16 0 14 7 11 14 -7z m76 -784 c0
-5 -4 -10 -10 -10 -5 0 -10 5 -10 10 0 6 5 10 10 10 6 0 10 -4 10 -10z m80 0
c0 -5 -7 -10 -16 -10 -8 0 -12 5 -9 10 3 6 10 10 16 10 5 0 9 -4 9 -10z
m-3845 -368 c44 -21 86 -51 114 -80 l44 -47 -6 73 -6 72 370 0 369 0 0 -106 0
-105 -122 2 -123 1 -3 -406 -2 -406 -120 0 -120 0 0 405 0 405 -115 0 c-92 0
-115 -3 -115 -14 0 -8 -12 -17 -27 -21 -16 -3 -58 -20 -95 -36 -78 -34 -88
-35 -88 -10 0 10 -10 31 -22 46 -81 104 -262 45 -214 -70 17 -40 38 -54 139
-95 114 -44 154 -66 204 -113 72 -66 88 -105 88 -217 0 -109 -19 -160 -83
-224 -135 -137 -401 -137 -537 -1 -41 42 -95 146 -95 185 0 23 8 27 83 49 130
37 119 39 142 -21 27 -70 68 -98 142 -98 47 0 59 4 84 29 65 65 26 128 -114
181 -210 80 -286 162 -295 315 -5 95 7 144 49 209 63 94 164 138 309 133 83
-2 104 -7 165 -35z m-890 -84 c26 -62 72 -174 102 -248 87 -215 161 -385 224
-522 32 -69 59 -131 59 -137 0 -7 -43 -11 -128 -11 l-128 0 -41 103 -40 102
-179 3 -179 2 -42 -102 -41 -103 -126 -3 c-69 -1 -126 -1 -126 1 0 2 21 51 46
108 25 57 92 217 148 354 57 138 130 311 163 385 33 74 63 145 67 158 7 20 13
22 91 22 l83 0 47 -112z m-505 -3 l0 -105 -135 0 -135 0 0 -405 0 -405 -115 0
-115 0 0 405 0 404 -122 3 -123 3 -3 103 -3 102 376 0 375 0 0 -105z m3038 -2
l3 -103 -221 0 -220 0 0 -105 0 -105 160 0 160 0 0 -100 0 -100 -165 0 -166 0
3 -92 3 -93 218 -3 217 -2 0 -105 0 -105 -340 0 -340 0 0 503 c0 277 3 507 7
510 4 4 158 6 342 5 l336 -3 3 -102z m726 70 c3 -21 6 -59 6 -85 l0 -48 -90 0
-90 0 0 -315 0 -315 -85 0 -85 0 -1 300 c-1 165 -2 306 -3 313 -1 8 -29 13
-93 15 l-93 3 0 78 c0 43 3 81 7 84 3 4 122 7 263 7 l257 0 7 -37z m177 27
c41 0 46 -2 46 -22 0 -13 0 -80 1 -150 l2 -128 90 0 89 0 3 151 3 152 85 0 85
1 3 -392 2 -392 -90 0 -90 0 0 155 0 155 -90 0 -90 0 0 -155 0 -155 -85 0 -85
0 -2 388 c-2 213 -1 391 1 396 2 4 20 6 40 2 20 -3 57 -6 82 -6z m999 -79 l0
-89 -172 6 -171 5 6 -24 c4 -13 7 -45 7 -71 l0 -48 130 0 130 0 0 -80 0 -80
-135 0 -136 0 3 -72 3 -73 178 0 177 0 0 -87 0 -88 -265 0 -265 0 0 395 0 395
255 0 255 0 0 -89z m-5890 -41 c0 -30 -13 -37 -39 -21 -8 5 -10 14 -6 21 5 9
4 11 -3 6 -7 -4 -12 -1 -12 8 0 11 9 16 30 16 27 0 30 -3 30 -30z m-327 -717
c-24 -2 -62 -2 -85 0 -24 2 -5 4 42 4 47 0 66 -2 43 -4z m5527 -706 l0 -663
-146 -18 c-80 -9 -149 -15 -152 -11 -3 3 -14 74 -24 158 -10 83 -24 208 -33
277 -8 69 -35 296 -60 505 -25 208 -42 382 -37 386 7 8 247 25 380 27 l72 2 0
-663z m452 648 c127 -9 234 -18 236 -20 5 -5 -75 -658 -123 -1005 -19 -135
-36 -261 -37 -280 -2 -19 -7 -34 -13 -34 -5 1 -76 7 -157 15 l-148 13 0 663
c0 365 2 663 5 663 2 0 109 -7 237 -15z m-5702 -80 c0 -9 -9 -15 -25 -15 -31
0 -33 17 -2 23 12 2 23 5 25 6 1 0 2 -6 2 -14z m60 -10 c0 -2 -7 -5 -15 -9 -9
-3 -15 0 -15 9 0 9 6 12 15 9 8 -4 15 -7 15 -9z m3155 -196 c65 -9 164 -34
221 -56 10 -4 14 3 14 21 l0 26 580 0 580 0 1 -112 c2 -210 12 -179 -124 -361
-67 -89 -167 -223 -221 -297 -55 -74 -125 -169 -156 -210 -144 -190 -200 -266
-200 -273 0 -4 156 -7 348 -6 l347 1 3 -196 2 -196 -589 0 -590 0 -3 50 -3 50
-35 -19 c-159 -85 -392 -112 -575 -66 -101 25 -237 100 -316 173 -166 154
-254 347 -266 584 -7 132 6 231 42 338 135 397 500 611 940 549z m-1606 -54
c12 -31 21 -58 21 -60 0 -6 163 -427 314 -810 143 -362 276 -708 276 -718 0
-4 -122 -6 -272 -5 l-272 3 -39 98 -39 97 -321 -2 -320 -3 -38 -95 -38 -95
-281 -3 c-157 -1 -280 2 -280 7 0 14 320 877 441 1191 61 157 125 322 142 368
l32 82 327 0 327 0 20 -55z m4612 -102 c-12 -20 -14 -14 -5 12 4 9 9 14 11 11
3 -2 0 -13 -6 -23z m-1035 -1071 c82 -42 124 -113 124 -209 0 -74 -26 -130
-77 -171 -54 -42 -87 -54 -158 -55 -71 -1 -107 16 -157 71 -44 49 -62 100 -62
173 2 163 182 267 330 191z m541 -15 c109 -70 136 -246 51 -343 -51 -58 -98
-77 -188 -72 -93 4 -144 33 -187 105 -24 40 -28 59 -28 119 0 95 35 155 115
197 49 25 63 28 125 25 55 -3 79 -10 112 -31z m-5377 -491 c0 -2 -7 -7 -16
-10 -8 -3 -12 -2 -9 4 6 10 25 14 25 6z m90 -49 c0 -2 -9 -12 -20 -22 -24 -21
-27 -14 -4 9 15 15 24 20 24 13z m-179 -90 c-10 -9 -11 -8 -5 6 3 10 9 15 12
12 3 -3 0 -11 -7 -18z m2632 6 c-7 -2 -19 -2 -25 0 -7 3 -2 5 12 5 14 0 19 -2
13 -5z m1490 0 c-13 -2 -33 -2 -45 0 -13 2 -3 4 22 4 25 0 35 -2 23 -4z m160
0 c-13 -2 -33 -2 -45 0 -13 2 -3 4 22 4 25 0 35 -2 23 -4z m-3575 -10 c-10 -2
-26 -2 -35 0 -10 3 -2 5 17 5 19 0 27 -2 18 -5z m311 -19 c2 -2 -19 -4 -47 -4
-29 0 -52 4 -52 9 0 8 90 3 99 -5z m3331 -54 c0 -22 -4 -40 -10 -40 -5 0 -10
18 -10 40 0 22 5 40 10 40 6 0 10 -18 10 -40z m-4403 -252 c-3 -8 -6 -5 -6 6
-1 11 2 17 5 13 3 -3 4 -12 1 -19z m3553 -134 c0 -8 -5 -12 -10 -9 -6 4 -8 11
-5 16 9 14 15 11 15 -7z m2717 -26 c-3 -8 -6 -5 -6 6 -1 11 2 17 5 13 3 -3 4
-12 1 -19z m-112 -87 c-3 -12 -10 -21 -15 -21 -4 0 -3 11 3 24 14 29 22 27 12
-3z m-58 -123 c-3 -8 -6 -5 -6 6 -1 11 2 17 5 13 3 -3 4 -12 1 -19z"/>
<path d="M3934 6644 c-9 -21 -34 -82 -56 -134 -22 -52 -42 -101 -45 -107 -4
-10 23 -13 117 -13 67 0 120 3 118 8 -1 4 -27 68 -57 142 -29 74 -55 137 -57
139 -2 2 -11 -13 -20 -35z"/>
<path d="M5540 5486 l0 -116 73 0 c135 0 187 32 187 116 0 34 -6 51 -29 76
-29 33 -31 33 -130 36 l-101 4 0 -116z"/>
<path d="M3881 4147 c-28 -68 -51 -125 -51 -127 0 -3 45 -5 100 -5 55 0 100 2
100 5 0 3 -18 52 -40 110 -22 58 -40 110 -40 117 0 41 -24 7 -69 -100z"/>
<path d="M5540 3015 c-222 -63 -352 -301 -295 -543 20 -83 44 -128 105 -195
73 -80 139 -109 257 -115 75 -4 105 0 164 18 62 18 81 30 131 81 33 32 57 63
53 69 -4 6 -62 10 -146 10 l-139 0 0 160 0 160 316 0 c305 0 316 -1 321 -20 5
-18 7 -17 27 8 24 29 246 347 249 357 1 4 -70 9 -157 12 l-159 5 -96 -96 -97
-96 -29 31 c-48 50 -145 115 -210 139 -78 29 -218 36 -295 15z"/>
<path d="M3712 2677 c-56 -155 -104 -286 -105 -292 -1 -6 77 -11 216 -13 119
-2 217 0 217 4 0 6 -173 483 -202 557 -6 15 -13 27 -17 27 -3 0 -52 -127 -109
-283z"/>
<path d="M7927 8384 c-4 -59 -7 -149 -7 -201 l0 -93 143 0 143 0 -6 55 c-5 47
-12 62 -47 98 -22 23 -65 74 -95 112 -31 39 -71 85 -90 103 l-35 33 -6 -107z"/>
<path d="M3033 8410 c0 -30 2 -43 4 -27 2 15 2 39 0 55 -2 15 -4 2 -4 -28z"/>
<path d="M4794 8439 c-3 -5 -10 -6 -16 -3 -6 4 -6 -2 1 -15 7 -11 14 -21 17
-21 3 0 3 3 1 8 -3 4 14 7 38 7 32 0 43 -3 43 -15 0 -30 15 -115 23 -130 5 -9
8 19 6 70 -1 47 -4 84 -7 82 -3 -1 -26 4 -53 12 -27 8 -49 10 -53 5z"/>
<path d="M5820 8255 c164 -210 250 -315 257 -315 3 0 3 41 0 92 -4 67 -10 94
-21 100 -9 5 -30 30 -48 56 -17 26 -65 89 -105 140 l-73 92 -70 0 -69 0 129
-165z"/>
<path d="M3420 8120 l0 -150 82 0 c90 0 152 21 177 61 23 37 25 129 4 168 -28
53 -72 71 -175 71 l-88 0 0 -150z"/>
<path d="M7491 8166 l-64 -65 -37 30 c-168 135 -436 63 -510 -136 -18 -50 -21
-75 -18 -150 7 -138 61 -230 166 -282 50 -25 68 -28 147 -28 77 1 97 5 140 27
28 14 63 40 79 57 l30 31 67 -65 c37 -36 70 -65 73 -65 3 0 6 160 6 355 0 195
-4 355 -8 355 -4 0 -36 -29 -71 -64z"/>
<path d="M1660 6763 c14 -9 65 -56 114 -105 50 -48 91 -88 93 -88 2 0 2 46 1
103 l-3 102 -115 2 c-110 2 -114 2 -90 -14z"/>
<path d="M2027 5592 c-15 -3 -17 -30 -17 -289 l0 -286 93 6 c111 7 156 20 205
62 135 116 116 383 -33 471 -39 22 -63 28 -139 33 -51 3 -100 5 -109 3z"/>
<path d="M2440 4500 l45 -7 -42 -1 -43 -2 0 -50 c0 -38 4 -50 15 -50 11 0 15
12 15 44 0 41 2 45 27 48 14 2 28 9 31 16 3 8 -10 12 -45 10 l-48 -1 45 -7z"/>
<path d="M2502 4485 c0 -16 2 -22 5 -12 2 9 2 23 0 30 -3 6 -5 -1 -5 -18z"/>
<path d="M2400 4348 c0 -27 2 -28 56 -28 54 0 55 1 52 26 -3 25 -7 27 -56 28
-50 1 -52 0 -52 -26z"/>
<path d="M2340 4340 c0 -5 5 -10 11 -10 5 0 7 5 4 10 -3 6 -8 10 -11 10 -2 0
-4 -4 -4 -10z"/>
<path d="M2602 3500 c0 -14 2 -19 5 -12 2 6 2 18 0 25 -3 6 -5 1 -5 -13z"/>
<path d="M2298 3493 c7 -3 16 -2 19 1 4 3 -2 6 -13 5 -11 0 -14 -3 -6 -6z"/>
<path d="M1590 2920 c30 -27 100 -88 155 -135 98 -84 100 -85 153 -85 45 0 53
3 48 16 -3 9 -6 69 -6 135 l0 119 -202 -1 -203 0 55 -49z"/>
<path d="M7614 1616 c11 -9 24 -16 30 -16 12 0 7 5 -24 19 -24 11 -24 11 -6
-3z"/>
<path d="M8014 1607 c-12 -7 -19 -17 -17 -24 2 -6 -6 -18 -18 -27 -22 -15 -21
-15 17 -13 36 2 39 4 45 40 6 40 4 42 -27 24z m16 -27 c0 -11 -6 -20 -14 -20
-9 0 -12 7 -9 20 3 11 9 20 14 20 5 0 9 -9 9 -20z"/>
<path d="M5160 1580 c0 -5 5 -10 10 -10 6 0 10 5 10 10 0 6 -4 10 -10 10 -5 0
-10 -4 -10 -10z"/>
<path d="M4915 1530 c22 -5 44 -4 50 1 5 5 -11 9 -40 8 l-50 -1 40 -8z"/>
<path d="M8166 1527 l-38 -12 21 -19 c21 -19 21 -19 21 2 0 32 18 27 23 -5 4
-27 4 -27 6 4 0 17 7 34 14 36 23 10 -8 5 -47 -6z"/>
<path d="M4913 1465 c0 -33 2 -45 4 -27 2 18 2 45 0 60 -2 15 -4 0 -4 -33z"/>
<path d="M8170 1431 c0 -6 5 -13 10 -16 6 -3 10 1 10 9 0 9 -4 16 -10 16 -5 0
-10 -4 -10 -9z"/>
<path d="M5523 1325 c0 -22 2 -30 4 -17 2 12 2 30 0 40 -3 9 -5 -1 -4 -23z"/>
<path d="M5522 1260 c0 -14 2 -19 5 -12 2 6 2 18 0 25 -3 6 -5 1 -5 -13z"/>
<path d="M3440 1184 c0 -14 3 -14 15 -4 8 7 15 14 15 16 0 2 -7 4 -15 4 -8 0
-15 -7 -15 -16z"/>
<path d="M5650 1191 c0 -5 7 -14 15 -21 13 -10 15 -9 15 9 0 12 -6 21 -15 21
-8 0 -15 -4 -15 -9z"/>
<path d="M8361 1173 c0 -25 1 -26 9 -8 12 27 12 35 0 35 -5 0 -10 -12 -9 -27z"/>
<path d="M3531 1164 c0 -11 3 -14 6 -6 3 7 2 16 -1 19 -3 4 -6 -2 -5 -13z"/>
<path d="M3200 1100 c0 -5 9 -10 20 -10 11 0 20 5 20 10 0 6 -9 10 -20 10 -11
0 -20 -4 -20 -10z"/>
<path d="M6455 1030 c3 -5 8 -10 11 -10 2 0 4 5 4 10 0 6 -5 10 -11 10 -5 0
-7 -4 -4 -10z"/>
<path d="M6770 1027 c0 -10 17 -14 56 -16 31 -1 60 -4 64 -6 7 -4 20 17 20 31
0 2 -31 4 -70 4 -52 0 -70 -3 -70 -13z"/>
<path d="M8771 554 c0 -11 3 -14 6 -6 3 7 2 16 -1 19 -3 4 -6 -2 -5 -13z"/>
<path d="M8751 484 c-44 -152 -89 -281 -131 -376 l-48 -108 24 0 c14 0 47 7
73 16 38 12 50 21 59 48 7 18 12 46 12 64 0 17 4 33 8 36 5 3 9 23 10 45 1 21
7 52 13 68 14 38 22 182 10 197 -5 6 -11 22 -13 35 -2 19 -6 13 -17 -25z"/>
</g>
</svg>
